<?xml version="1.0" encoding="utf-8"?>
<!-- Generator: Adobe Illustrator 28.3.0, SVG Export Plug-In . SVG Version: 6.00 Build 0)  -->
<svg version="1.1" id="Layer_2_00000170256517156053146950000003562072026962372781_"
	 xmlns="http://www.w3.org/2000/svg" xmlns:xlink="http://www.w3.org/1999/xlink" x="0px" y="0px" viewBox="0 0 72.2 72.2"
	 style="enable-background:new 0 0 72.2 72.2;" xml:space="preserve">
<style type="text/css">
	.st0{fill:none;stroke:#010101;stroke-width:4;stroke-linecap:round;stroke-linejoin:round;}
</style>
<g id="Layer_1-2">
	<g>
		<path class="st0" d="M67,27c-2.1,0.3-4.3-0.1-7.1-2.5c-2-1.8-3.5-4.2-3.5-6.9c0-2.2,0.8-4.1,2.1-5.7c0.5-0.7,0.5-1.6-0.2-2.2
			C55,6.5,51,4.1,46.7,2.6c-0.8-0.3-1.7,0.1-2,0.9C43.2,6.7,39.9,9,36.1,9s-7.1-2.3-8.5-5.6c-0.3-0.8-1.2-1.2-2-0.9
			c-4.3,1.5-8.3,3.9-11.6,7c-0.6,0.6-0.7,1.6-0.2,2.2c1.3,1.6,2,3.6,2.1,5.7c0,2.7-1.4,5.2-3.5,6.9c-2.7,2.4-5,2.8-7,2.5
			c-0.9-0.1-1.7,0.4-1.9,1.3c-0.6,2.5-0.9,5.2-0.9,7.9s0.3,5.1,0.8,7.6c0.2,0.9,1,1.4,1.9,1.3c1.9-0.3,4,0,6.4,1.8
			c2.6,2,4.5,5,4.2,8.2c-0.2,2-0.9,3.7-2.1,5.2c-0.6,0.7-0.5,1.7,0.1,2.3c3.3,3.1,7.3,5.6,11.6,7.1c0.8,0.3,1.7-0.1,2.1-0.9
			c1.4-3.4,4.8-5.9,8.7-5.9s7.3,2.4,8.7,5.9c0.3,0.8,1.2,1.2,2.1,0.9c4.3-1.5,8.3-4,11.6-7.1c0.6-0.6,0.7-1.6,0.1-2.3
			c-1.4-1.7-2.2-3.8-2.2-6.2c0.1-2.5,1.5-4.9,3.4-6.5c2.7-2.4,5.1-2.8,7.1-2.5c0.9,0.1,1.7-0.4,1.9-1.3c0.5-2.4,0.8-5,0.8-7.6
			s-0.3-5.4-0.9-7.9C68.6,27.3,67.8,26.8,67,27L67,27z"/>
		<circle class="st0" cx="36.1" cy="36" r="9.6"/>
	</g>
</g>
</svg>
