<?xml version="1.0" encoding="utf-8"?>
<!-- Generator: Adobe Illustrator 28.3.0, SVG Export Plug-In . SVG Version: 6.00 Build 0)  -->
<svg version="1.1" id="Layer_2_00000111168955500696233110000001381811826008823962_"
	 xmlns="http://www.w3.org/2000/svg" xmlns:xlink="http://www.w3.org/1999/xlink" x="0px" y="0px" viewBox="0 0 68.5 75.3"
	 style="enable-background:new 0 0 68.5 75.3;" xml:space="preserve">
<style type="text/css">
	.st0{fill:none;stroke:#010101;stroke-width:4;stroke-linecap:round;stroke-linejoin:round;}
</style>
<g id="Layer_1-2">
	<g>
		<path class="st0" d="M42.8,72.8v-5.8c0-1.8,1.4-3.2,3.2-3.2h5.4c3.4,0,6.2-2.8,6.2-6.2v-7.1c0-1.3,0.8-2.5,2.1-3l4.5-1.7
			c1.6-0.6,2.4-2.4,1.8-4l-6.6-11.8c-0.2-0.4-0.3-0.9-0.3-1.4C57.8,12.9,43.6,0.6,27,2.7C14.5,4.3,4.3,14.6,2.7,27.1
			c-1.2,9.4,2.3,18.1,8.5,24c1.2,1.2,1.9,2.8,1.9,4.5v17.2"/>
		<g>
			<path class="st0" d="M46.2,26.3c-1,0.1-2.1-0.1-3.5-1.2c-1-0.9-1.7-2.1-1.7-3.4c0-1.1,0.4-2,1-2.8c0.3-0.3,0.2-0.8-0.1-1.1
				c-1.6-1.5-3.6-2.7-5.7-3.4c-0.4-0.1-0.8,0.1-1,0.4c-0.7,1.6-2.3,2.7-4.2,2.7s-3.5-1.1-4.2-2.7c-0.2-0.4-0.6-0.6-1-0.4
				c-2.1,0.7-4.1,1.9-5.7,3.4c-0.3,0.3-0.4,0.8-0.1,1.1c0.6,0.8,1,1.7,1,2.8c0,1.3-0.7,2.5-1.7,3.4c-1.3,1.1-2.4,1.4-3.4,1.2
				c-0.4-0.1-0.8,0.2-0.9,0.6c-0.3,1.2-0.4,2.5-0.4,3.9s0.1,2.5,0.4,3.7c0.1,0.4,0.5,0.7,0.9,0.6c0.9-0.1,1.9,0,3.1,0.9
				c1.3,1,2.2,2.4,2,4c-0.1,1-0.5,1.8-1,2.5c-0.3,0.3-0.2,0.8,0.1,1.1c1.6,1.5,3.6,2.7,5.7,3.5c0.4,0.1,0.9-0.1,1-0.5
				c0.7-1.7,2.3-2.9,4.2-2.9s3.6,1.2,4.2,2.9c0.2,0.4,0.6,0.6,1,0.5c2.1-0.8,4-1.9,5.7-3.5c0.3-0.3,0.3-0.8,0.1-1.1
				c-0.7-0.8-1.1-1.9-1.1-3c0-1.2,0.7-2.4,1.7-3.2c1.3-1.2,2.5-1.4,3.5-1.2c0.4,0.1,0.8-0.2,0.9-0.6c0.2-1.2,0.4-2.4,0.4-3.7
				s-0.2-2.6-0.4-3.9C47.1,26.5,46.6,26.2,46.2,26.3L46.2,26.3z"/>
			<circle class="st0" cx="31.1" cy="30.7" r="4.7"/>
		</g>
	</g>
</g>
</svg>
