<?xml version="1.0" encoding="utf-8"?>
<!-- Generator: Adobe Illustrator 28.3.0, SVG Export Plug-In . SVG Version: 6.00 Build 0)  -->
<svg version="1.1" id="Layer_2_00000108304344758389268350000010893690546545808038_"
	 xmlns="http://www.w3.org/2000/svg" xmlns:xlink="http://www.w3.org/1999/xlink" x="0px" y="0px" viewBox="0 0 75.3 75.3"
	 style="enable-background:new 0 0 75.3 75.3;" xml:space="preserve">
<style type="text/css">
	.st0{fill:none;stroke:#010101;stroke-width:4;stroke-linecap:round;stroke-linejoin:round;}
</style>
<g id="Layer_1-2">
	<path class="st0" d="M72.2,17.1c1.6,6.4,0,13.8-5.1,18.9c-4.9,5-11.8,6.8-18.1,5.1c-1.6-0.4-3.4,0-4.7,1.3L16.9,70.3
		c-3.2,3.3-8.7,3.3-11.9,0s-3.2-8.8,0-12.1l28-27.9c1.1-1.3,1.6-2.9,1.3-4.6c-1.1-6.2,0.7-12.6,5.4-17.4C44.4,3.4,50.9,1.7,57,2.8
		c1.3,0.2,1.8,1.8,0.9,2.9l-6.9,7c-0.4,0.4-0.5,0.7-0.5,1.3l2,7c0,0.7,0.7,1.5,1.5,1.5l6.9,2c0.4,0,0.9-0.2,1.3-0.5l7.4-7.5
		C70.4,15.5,71.8,15.8,72.2,17.1z"/>
</g>
</svg>
